HIERARCHY
ROOT Hips
{
	OFFSET 0.000000 0.000000 0.000000
	CHANNELS 6 Xposition Yposition Zposition Zrotation Yrotation Xrotation 
	JOINT LHipJoint
	{
		OFFSET 0.000000 0.000000 0.000000
		CHANNELS 3 Zrotation Yrotation Xrotation
		JOINT LeftUpLeg
		{
			OFFSET 1.363060 -1.794630 0.839290
			CHANNELS 3 Zrotation Yrotation Xrotation
			JOINT LeftLeg
			{
				OFFSET 2.448110 -6.726130 0.000000
				CHANNELS 3 Zrotation Yrotation Xrotation
				JOINT LeftFoot
				{
					OFFSET 2.562200 -7.039590 0.000000
					CHANNELS 3 Zrotation Yrotation Xrotation
					JOINT LeftToeBase
					{
						OFFSET 0.157640 -0.433110 2.322550
						CHANNELS 3 Zrotation Yrotation Xrotation
						End Site
						{
							OFFSET 0.000000 0.000000 0.000000
						}
					}
				}
			}
		}
	}
	JOINT RHipJoint
	{
		OFFSET 0.000000 0.000000 0.000000
		CHANNELS 3 Zrotation Yrotation Xrotation
		JOINT RightUpLeg
		{
			OFFSET -1.305520 -1.794630 0.839290
			CHANNELS 3 Zrotation Yrotation Xrotation
			JOINT RightLeg
			{
				OFFSET -2.542530 -6.985550 0.000000
				CHANNELS 3 Zrotation Yrotation Xrotation
				JOINT RightFoot
				{
					OFFSET -2.568260 -7.056230 0.000000
					CHANNELS 3 Zrotation Yrotation Xrotation
					JOINT RightToeBase
					{
						OFFSET -0.164730 -0.452590 2.363150
						CHANNELS 3 Zrotation Yrotation Xrotation
						End Site
						{
							OFFSET 0.000000 0.000000 0.000000
						}
					}
				}
			}
		}
	}
	JOINT LowerBack
	{
		OFFSET 0.000000 0.000000 0.000000
		CHANNELS 3 Zrotation Yrotation Xrotation
		JOINT Spine
		{
			OFFSET 0.028270 2.035590 -0.193380
			CHANNELS 3 Zrotation Yrotation Xrotation
			JOINT Spine1
			{
				OFFSET 0.056720 2.048850 -0.042750
				CHANNELS 3 Zrotation Yrotation Xrotation
				JOINT Neck
				{
					OFFSET 0.000000 0.000000 0.000000
					CHANNELS 3 Zrotation Yrotation Xrotation
					JOINT Neck1
					{
						OFFSET -0.054170 1.746240 0.172020
						CHANNELS 3 Zrotation Yrotation Xrotation
						JOINT Head
						{
							OFFSET 0.104070 1.761360 -0.123970
							CHANNELS 3 Zrotation Yrotation Xrotation
							End Site
							{
								OFFSET 0.000000 0.000000 0.000000
							}
						}
					}
				}
				JOINT LeftShoulder
				{
					OFFSET 0.000000 0.000000 0.000000
					CHANNELS 3 Zrotation Yrotation Xrotation
					JOINT LeftArm
					{
						OFFSET 3.362410 1.200890 -0.311210
						CHANNELS 3 Zrotation Yrotation Xrotation
						JOINT LeftForeArm
						{
							OFFSET 4.983000 -0.000000 -0.000000
							CHANNELS 3 Zrotation Yrotation Xrotation
							JOINT LeftHand
							{
								OFFSET 3.483560 -0.000000 -0.000000
								CHANNELS 3 Zrotation Yrotation Xrotation
								JOINT LeftFingerBase
								{
									OFFSET 0.000000 0.000000 0.000000
									CHANNELS 3 Zrotation Yrotation Xrotation
									JOINT LeftHandIndex1
									{
										OFFSET 0.715260 -0.000000 -0.000000
										CHANNELS 3 Zrotation Yrotation Xrotation
										End Site
										{
											OFFSET 0.000000 0.000000 0.000000
										}
									}
								}
								JOINT LThumb
								{
									OFFSET 0.000000 0.000000 0.000000
									CHANNELS 3 Zrotation Yrotation Xrotation
									End Site
									{
										OFFSET 0.000000 0.000000 0.000000
									}
								}
							}
						}
					}
				}
				JOINT RightShoulder
				{
					OFFSET 0.000000 0.000000 0.000000
					CHANNELS 3 Zrotation Yrotation Xrotation
					JOINT RightArm
					{
						OFFSET -3.136600 1.374050 -0.404650
						CHANNELS 3 Zrotation Yrotation Xrotation
						JOINT RightForeArm
						{
							OFFSET -5.241900 -0.000000 -0.000000
							CHANNELS 3 Zrotation Yrotation Xrotation
							JOINT RightHand
							{
								OFFSET -3.444170 -0.000000 -0.000000
								CHANNELS 3 Zrotation Yrotation Xrotation
								JOINT RightFingerBase
								{
									OFFSET 0.000000 0.000000 0.000000
									CHANNELS 3 Zrotation Yrotation Xrotation
									JOINT RightHandIndex1
									{
										OFFSET -0.622530 -0.000000 -0.000000
										CHANNELS 3 Zrotation Yrotation Xrotation
										End Site
										{
											OFFSET 0.000000 0.000000 0.000000
										}
									}
								}
								JOINT RThumb
								{
									OFFSET 0.000000 0.000000 0.000000
									CHANNELS 3 Zrotation Yrotation Xrotation
									End Site
									{
										OFFSET 0.000000 0.000000 0.000000
									}
								}
							}
						}
					}
				}
			}
		}
	}
}
MOTION
Frames: 5
Frame Time: 0.008333
-1.622978 16.390029 -39.127099 -6.047643 -31.995952 6.864082 6.864236 0.335788 -6.697043 -9.975335 22.281583 -49.477314 9.575392 20.190017 54.006537 0.628428 3.104863 17.222450 0.055600 1.521400 4.184700 -0.682493 -5.483026 7.953886 3.087572 -2.687349 -0.415267 -1.294562 -7.930601 27.259905 12.881165 -27.831541 -2.608201 -2.407100 9.666900 -27.904700 -0.706567 4.625334 10.131307 0.319672 5.946931 -2.468767 0.409718 3.180362 -6.570279 -8.210259 -9.898780 -1.942601 5.286315 -13.051138 9.528301 3.820300 -6.688600 4.258700 0.577545 -8.943168 0.922200 -76.613598 -5.356462 16.706697 9.262339 -15.755987 -3.399515 -4.174668 -0.739819 19.889703 24.243985 20.110906 11.117300 -7.125000 0.000000 0.000000 -0.935900 54.303300 -0.214000 -3.959817 9.455731 1.461352 74.950497 -2.117512 40.431784 -17.303145 27.991302 -7.277345 2.513412 4.176241 8.471457 -8.792800 -35.767358 6.889200 7.125000 0.000000 0.000000 34.478800 -67.548300 -19.609400 
-1.627876 16.390941 -39.126302 -6.027419 -31.995868 6.857785 6.859858 0.334701 -6.694335 -9.983145 22.285250 -49.472812 9.570603 20.185123 53.983780 0.610075 3.151484 17.239763 0.053200 1.488900 4.095200 -0.683536 -5.481937 7.949244 3.082111 -2.722305 -0.438555 -1.305917 -7.938554 27.286254 12.898676 -27.865006 -2.613539 -2.406500 9.665900 -27.901400 -0.728938 4.621285 10.136088 0.321038 5.938572 -2.469473 0.432837 3.178056 -6.591746 -8.237306 -9.873007 -1.903545 5.301863 -13.019066 9.522817 3.843000 -6.673800 4.243000 0.579631 -8.944368 0.921702 -76.642209 -5.339192 16.665733 9.279819 -15.775326 -3.409274 -4.180265 -0.752555 19.862934 24.244840 20.184638 11.158300 -7.125000 0.000000 0.000000 -0.954200 54.395100 -0.220300 -3.961404 9.457176 1.463758 74.949813 -2.109274 40.404021 -17.294666 27.977559 -7.269131 2.500458 4.176390 8.552327 -8.619203 -35.708216 6.755400 7.125000 0.000000 0.000000 34.599400 -67.447800 -19.607500 
-1.634026 16.391396 -39.124594 -5.864200 -32.014826 6.759933 6.841697 0.340512 -6.668259 -10.135590 22.374364 -49.512484 9.561741 20.180253 53.994476 0.627130 3.112902 17.233457 0.054200 1.502200 4.131800 -0.712032 -5.510913 7.952890 2.966731 -2.727329 -0.434699 -1.318499 -7.931158 27.290497 12.873235 -27.811433 -2.570184 -2.399900 9.653600 -27.862200 -0.917002 4.602796 10.153248 0.321712 5.887234 -2.472074 0.491132 3.158117 -6.594154 -8.202097 -9.854016 -1.952894 5.266122 -12.991345 9.552357 3.779700 -6.659000 4.273300 0.596621 -8.940552 0.910655 -76.626333 -5.284143 16.794943 9.344230 -15.873337 -3.464360 -4.254283 -0.896234 19.563517 24.112901 20.969537 11.537200 -7.125000 0.000000 0.000000 -1.300900 55.357600 -0.330800 -3.956547 9.461987 1.454406 74.953021 -2.120868 40.609402 -17.364527 27.999490 -7.235857 2.536769 4.058137 8.328927 -9.546802 -34.806002 7.255000 7.125000 0.000000 0.000000 31.980700 -66.916500 -17.617300 
-1.637329 16.392421 -39.124252 -6.004180 -31.993231 6.863601 6.856606 0.333021 -6.693766 -9.980730 22.280805 -49.473514 9.572853 20.184919 53.979576 0.592337 3.193163 17.262129 0.054000 1.499800 4.125200 -0.687649 -5.478540 7.950797 3.092693 -2.722168 -0.433477 -1.300151 -7.938988 27.302848 12.848997 -27.771663 -2.642822 -2.531700 9.895300 -28.638500 -0.769295 4.591308 10.144922 0.330358 5.893907 -2.474975 0.499640 3.159346 -6.638849 -8.274912 -9.839489 -1.861758 5.292326 -12.973163 9.528991 3.834600 -6.653400 4.235800 0.592783 -8.945896 0.913935 -76.691799 -5.280988 16.578394 9.303109 -15.806212 -3.420673 -4.175808 -0.743420 19.841555 24.316431 20.138304 11.163500 -7.125000 0.000000 0.000000 -0.863800 54.346600 -0.198400 -3.953251 9.461254 1.458918 74.919541 -2.150162 40.476510 -17.354018 27.987862 -7.227137 2.552470 4.029815 8.623908 -9.598819 -34.705015 7.269100 7.125000 0.000000 0.000000 31.759600 -66.836000 -17.427900 
-1.642112 16.392877 -39.123569 -5.976587 -31.983892 6.856599 6.853060 0.331174 -6.692567 -9.993652 22.278625 -49.477275 9.569185 20.183260 53.970721 0.587282 3.205277 17.267248 0.056600 1.535800 4.224300 -0.693586 -5.479027 7.951133 3.086329 -2.749752 -0.437066 -1.298804 -7.937934 27.321972 12.791882 -27.664565 -2.653107 -2.359800 9.578400 -27.622000 -0.816727 4.582742 10.147074 0.333437 5.876708 -2.476429 0.540473 3.152450 -6.645312 -8.288903 -9.816419 -1.868232 5.308513 -12.943545 9.538447 3.847000 -6.639600 4.246900 0.592633 -8.950155 0.912943 -76.684489 -5.303001 16.556130 9.290511 -15.794611 -3.423490 -4.193532 -0.761467 19.806350 24.311916 20.271128 11.237400 -7.125000 0.000000 0.000000 -0.893500 54.510000 -0.208800 -3.955796 9.464032 1.462410 74.919075 -2.139177 40.398024 -17.316697 27.982726 -7.278325 2.500051 4.177213 8.714272 -8.521157 -35.739653 6.688000 7.125000 0.000000 0.000000 34.778900 -67.445700 -19.717400 
